<svg width="22" height="22" viewBox="0 0 22 22" fill="none" xmlns="http://www.w3.org/2000/svg">
<path d="M20.625 2.75H1.375C1.01033 2.75 0.660591 2.89487 0.402728 3.15273C0.144866 3.41059 0 3.76033 0 4.125L0 6.875H22V4.125C22 3.76033 21.8551 3.41059 21.5973 3.15273C21.3394 2.89487 20.9897 2.75 20.625 2.75ZM1.375 20.625C1.375 20.9897 1.51987 21.3394 1.77773 21.5973C2.03559 21.8551 2.38533 22 2.75 22H19.25C19.6147 22 19.9644 21.8551 20.2223 21.5973C20.4801 21.3394 20.625 20.9897 20.625 20.625V8.25H1.375V20.625ZM8.25 11H13.75C14.1147 11 14.4644 11.1449 14.7223 11.4027C14.9801 11.6606 15.125 12.0103 15.125 12.375C15.125 12.7397 14.9801 13.0894 14.7223 13.3473C14.4644 13.6051 14.1147 13.75 13.75 13.75H8.25C7.88533 13.75 7.53559 13.6051 7.27773 13.3473C7.01987 13.0894 6.875 12.7397 6.875 12.375C6.875 12.0103 7.01987 11.6606 7.27773 11.4027C7.53559 11.1449 7.88533 11 8.25 11Z" fill="#0061A9"/>
</svg>
