<svg width="38" height="38" viewBox="0 0 38 38" fill="none" xmlns="http://www.w3.org/2000/svg">
<path d="M33.1431 14.0006C33.3521 14.9411 33.4733 15.9078 33.4733 16.9005C33.4733 24.567 26.9657 30.9581 18.3967 32.3309C20.2089 33.0624 22.2395 33.4899 24.4031 33.4899C26.4432 33.4899 28.3694 33.1146 30.1079 32.4615C32.3095 33.212 34.713 33.4067 36.7009 33.4067C35.8032 32.3303 35.0429 31.1464 34.4375 29.8822C36.6415 27.9157 38 25.3104 38 22.4414C38 19.0499 36.1071 16.0265 33.1431 14.0006ZM29.9107 16.9005C29.9107 10.1911 23.2156 4.75 14.9554 4.75C6.69513 4.75 0 10.1911 0 16.9005C0 20.4013 1.83112 23.5457 4.74762 25.764C4.01621 27.6373 2.98552 29.3795 1.69575 30.9225C4.6835 30.9225 8.531 30.5306 11.4926 28.7114C12.6065 28.9275 13.7631 29.0534 14.9554 29.0534C23.2156 29.051 29.9107 23.6123 29.9107 16.9005Z" fill="#0060A9"/>
<path d="M33.1704 10.7624C33.1757 11.5724 32.94 12.3658 32.4932 13.0416C32.0464 13.7173 31.4087 14.245 30.6611 14.5575C29.9135 14.87 29.0898 14.9531 28.2948 14.7964C27.4999 14.6397 26.7695 14.2501 26.1966 13.6773C25.6236 13.1045 25.234 12.3743 25.0772 11.5795C24.9204 10.7847 25.0036 9.96129 25.3161 9.2139C25.6287 8.46651 26.1566 7.82893 26.8325 7.38221C27.5084 6.93549 28.302 6.69982 29.1122 6.70517C30.1863 6.71226 31.2143 7.14199 31.9739 7.90133C32.7334 8.66067 33.1633 9.68852 33.1704 10.7624Z" fill="#F72A2A"/>
</svg>
