<svg width="212" height="37" viewBox="0 0 212 37" fill="none" xmlns="http://www.w3.org/2000/svg">
<mask id="mask0_508_5684" style="mask-type:luminance" maskUnits="userSpaceOnUse" x="0" y="0" width="32" height="32">
<path d="M14.4004 0.336414C13.9212 0.59567 13.5238 0.983623 13.2529 1.45664C12.982 1.92965 12.8483 2.46895 12.867 3.01385C12.8826 3.39081 12.8205 3.76695 12.6845 4.11885C12.5486 4.47074 12.3418 4.79087 12.0769 5.0593L11.4828 5.65083C11.198 5.91772 10.8629 6.12511 10.4971 6.26089C10.1312 6.39667 9.74205 6.4581 9.35223 6.44161C8.74506 6.43781 8.15206 6.62513 7.65707 6.9771C7.39328 7.16541 7.16212 7.39574 6.97279 7.65891C6.62445 8.15017 6.43733 8.73768 6.43733 9.3401C6.43733 9.94251 6.62445 10.53 6.97279 11.0213C7.06499 11.155 7.16909 11.28 7.28383 11.3949C7.40043 11.5089 7.52631 11.6131 7.66018 11.7062C8.15517 12.0582 8.74818 12.2455 9.35534 12.2417C9.74516 12.2252 10.1343 12.2866 10.5002 12.4224C10.866 12.5582 11.2011 12.7656 11.486 13.0325L12.08 13.6271C12.3457 13.9122 12.5523 14.2472 12.6879 14.6128C12.8235 14.9783 12.8854 15.367 12.8701 15.7566C12.8633 16.3658 13.0507 16.9612 13.4051 17.4565C13.5875 17.7263 13.8198 17.9588 14.0893 18.1414C14.5239 18.4511 15.0355 18.6347 15.5676 18.6718C16.0998 18.709 16.6318 18.5983 17.1051 18.3519C17.5784 18.1055 17.9745 17.7331 18.2497 17.2757C18.5249 16.8183 18.6685 16.2937 18.6647 15.7597C18.6484 15.3696 18.7099 14.9801 18.8455 14.6139C18.9812 14.2478 19.1883 13.9123 19.4548 13.6271L20.0488 13.0325C20.3401 12.7611 20.6831 12.5513 21.0571 12.4154C21.4312 12.2796 21.8287 12.2205 22.2261 12.2417C22.616 12.2249 23.0053 12.2861 23.3711 12.4219C23.737 12.5577 24.0721 12.7653 24.3567 13.0325L24.7922 13.4652C25.4017 14.0799 25.7437 14.9108 25.7437 15.7769C25.7437 16.6429 25.4017 17.4738 24.7922 18.0885L24.3598 18.5212C24.0744 18.7873 23.7392 18.9941 23.3735 19.1298C23.0078 19.2656 22.6189 19.3275 22.2292 19.312C21.6209 19.3067 21.0264 19.4942 20.5309 19.8475C20.2678 20.0378 20.0367 20.269 19.8467 20.5324C19.497 21.023 19.3099 21.611 19.3117 22.2136C19.3412 23.0104 19.0537 23.7863 18.5123 24.3712L17.9369 24.9471C17.4307 25.4555 16.7442 25.7431 16.0271 25.7472H15.7503C15.3318 25.7485 14.9173 25.6667 14.5307 25.5063C14.1442 25.346 13.7933 25.1104 13.4984 24.8133L13.0474 24.3618C12.7785 24.0721 12.5695 23.7321 12.4323 23.3613C12.2951 22.9905 12.2325 22.5963 12.248 22.2012C12.2479 21.5998 12.0609 21.0134 11.713 20.5231C11.5283 20.2552 11.2964 20.0231 11.0287 19.8382C10.538 19.4895 9.95095 19.3023 9.34912 19.3027C8.55228 19.3317 7.77632 19.044 7.19051 18.5026L6.61509 17.9266C6.07438 17.3403 5.78803 16.5633 5.81883 15.766C5.81908 15.1641 5.6309 14.5772 5.28074 14.0879C5.18779 13.9538 5.08375 13.8278 4.9697 13.7112C4.85281 13.5987 4.72808 13.4946 4.59646 13.3999C4.26023 13.1595 3.87659 12.9937 3.47121 12.9137C3.06582 12.8336 2.64804 12.8412 2.2458 12.9358C1.84357 13.0304 1.46615 13.2099 1.13881 13.4623C0.811463 13.7147 0.541736 14.0341 0.347671 14.3992C0.119538 14.818 0 15.2874 0 15.7644C0 16.2414 0.119538 16.7108 0.347671 17.1296C0.604938 17.6073 0.989968 18.0039 1.45965 18.275C1.92933 18.546 2.46513 18.6809 3.00705 18.6645C3.38809 18.6498 3.7681 18.7132 4.12378 18.8508C4.47946 18.9884 4.8033 19.1972 5.07545 19.4646L5.64776 20.0405C5.91681 20.3296 6.12619 20.669 6.2639 21.0392C6.40161 21.4095 6.46493 21.8033 6.45024 22.1981C6.44802 22.8008 6.63518 23.3889 6.98523 23.8793C7.07817 24.0133 7.18222 24.1393 7.29627 24.256C7.41359 24.3692 7.53941 24.4733 7.67263 24.5673C8.16158 24.9172 8.74803 25.1046 9.34912 25.1028C9.74402 25.088 10.138 25.1513 10.5084 25.2892C10.8788 25.427 11.2184 25.6366 11.5077 25.906L12.0831 26.4789C12.3502 26.7513 12.5589 27.0754 12.6964 27.4314C12.8338 27.7875 12.8972 28.1678 12.8825 28.5492C12.8654 29.0918 12.9998 29.6284 13.2707 30.0986C13.5416 30.5689 13.9382 30.9541 14.4159 31.2111C14.8343 31.4394 15.3033 31.5591 15.7798 31.5591C16.2564 31.5591 16.7253 31.4394 17.1437 31.2111C17.6206 30.9529 18.0167 30.5674 18.2879 30.0976C18.5592 29.6277 18.695 29.0917 18.6803 28.5492C18.6652 28.168 18.7281 27.7878 18.865 27.4318C19.0019 27.0758 19.21 26.7515 19.4765 26.4789L20.052 25.9029C20.6378 25.3614 21.4137 25.0738 22.2106 25.1028C22.8125 25.1042 23.3999 24.9169 23.8902 24.5673C24.023 24.474 24.1478 24.3699 24.2634 24.256C24.3765 24.1385 24.4805 24.0126 24.5744 23.8793C24.9288 23.3852 25.1162 22.7907 25.1094 22.1825C25.094 21.7924 25.1559 21.4032 25.2915 21.0371C25.427 20.6711 25.6337 20.3356 25.8995 20.0499L26.4936 19.4552C26.7615 19.1898 27.0813 18.9826 27.4329 18.8465C27.7845 18.7105 28.1604 18.6485 28.5371 18.6645C29.0816 18.6838 29.6207 18.5504 30.0934 18.2791C30.5661 18.0079 30.9536 17.6097 31.212 17.1296C31.4401 16.7108 31.5597 16.2414 31.5597 15.7644C31.5597 15.2874 31.4401 14.818 31.212 14.3992C30.9499 13.9229 30.5599 13.5294 30.0861 13.2631C29.6124 12.9968 29.0737 12.8684 28.5309 12.8924C28.1545 12.9072 27.7792 12.8443 27.4282 12.7077C27.0772 12.5711 26.758 12.3638 26.4904 12.0985L25.9866 11.5941C25.6959 11.3034 25.4679 10.9562 25.3165 10.5739C25.1651 10.1916 25.0936 9.78229 25.1063 9.37123C25.1116 8.76327 24.9243 8.16926 24.5713 7.67448C24.4774 7.54215 24.3734 7.41725 24.2603 7.30089C24.1436 7.18699 24.0177 7.08286 23.8839 6.98955C23.3939 6.64185 22.8081 6.45509 22.2074 6.45509C21.6068 6.45509 21.021 6.64185 20.5309 6.98955C20.2654 7.17805 20.0331 7.40953 19.8436 7.67448C19.4909 8.17061 19.3037 8.76549 19.3086 9.37435C19.325 9.76453 19.2637 10.1541 19.128 10.5203C18.9924 10.8864 18.7852 11.2219 18.5185 11.507L17.9244 12.1016C17.3249 12.6118 16.5637 12.892 15.7767 12.892C14.9898 12.892 14.2285 12.6118 13.629 12.1016L13.0349 11.507C12.525 10.9064 12.245 10.1439 12.245 9.35567C12.245 8.56748 12.525 7.80496 13.0349 7.20437L13.629 6.61284C13.9139 6.34582 14.2489 6.13814 14.6147 6.00185C14.9805 5.86556 15.3696 5.80339 15.7596 5.81895C16.3672 5.82532 16.9609 5.63775 17.4548 5.28346C17.7187 5.09404 17.9498 4.86267 18.1391 4.59853C18.3792 4.26224 18.5448 3.87849 18.6247 3.47295C18.7046 3.06742 18.6971 2.64947 18.6025 2.2471C18.508 1.84472 18.3287 1.46721 18.0765 1.13983C17.8244 0.81246 17.5053 0.542782 17.1406 0.34886C16.7224 0.119961 16.2534 0 15.7767 0C15.3001 0 14.8311 0.119961 14.4128 0.34886" fill="white"/>
</mask>
<g mask="url(#mask0_508_5684)">
<path d="M31.6561 -0.0124512H-0.128906V31.6873H31.6561V-0.0124512Z" fill="url(#paint0_linear_508_5684)"/>
</g>
<mask id="mask1_508_5684" style="mask-type:luminance" maskUnits="userSpaceOnUse" x="39" y="5" width="14" height="21">
<path d="M39.2734 5.95288V25.6072H52.8192V23.2193H41.9359V5.95288H39.2734Z" fill="white"/>
</mask>
<g mask="url(#mask1_508_5684)">
<path d="M52.8223 5.95288H39.2734V25.6072H52.8223V5.95288Z" fill="url(#paint1_linear_508_5684)"/>
</g>
<mask id="mask2_508_5684" style="mask-type:luminance" maskUnits="userSpaceOnUse" x="58" y="5" width="16" height="22">
<path d="M70.5489 5.95239V18.8664C70.555 19.7207 70.3304 20.5608 69.8988 21.2979C69.4698 22.0334 68.8608 22.6473 68.129 23.0818C67.3876 23.5121 66.5459 23.7387 65.6889 23.7387C64.8319 23.7387 63.9902 23.5121 63.2488 23.0818C62.5187 22.6463 61.9108 22.0325 61.4821 21.2979C61.0451 20.5581 60.8172 19.7134 60.8227 18.8539V5.95239H58.1602V18.717C58.1551 20.0386 58.4972 21.3384 59.1523 22.4859C59.8074 23.6334 60.7525 24.5884 61.8927 25.2549C63.0339 25.9333 64.3383 26.2874 65.6656 26.2792C66.6575 26.2829 67.6404 26.0901 68.5576 25.7118C69.4748 25.3336 70.3081 24.7773 71.0095 24.0753C71.7109 23.3732 72.2666 22.5391 72.6445 21.621C73.0224 20.703 73.2151 19.7192 73.2114 18.7263V5.96173L70.5489 5.95239Z" fill="white"/>
</mask>
<g mask="url(#mask2_508_5684)">
<path d="M73.214 5.95264H58.1504V26.2794H73.214V5.95264Z" fill="url(#paint2_linear_508_5684)"/>
</g>
<mask id="mask3_508_5684" style="mask-type:luminance" maskUnits="userSpaceOnUse" x="79" y="5" width="21" height="21">
<path d="M89.4816 15.274L79.6621 5.28027V25.6071H82.2997V11.4571L89.4816 18.8668L96.6324 11.4571V25.6071H99.27V5.28027L89.4816 15.274Z" fill="white"/>
</mask>
<g mask="url(#mask3_508_5684)">
<path d="M99.2739 5.2771H79.666V25.6039H99.2739V5.2771Z" fill="url(#paint3_linear_508_5684)"/>
</g>
<mask id="mask4_508_5684" style="mask-type:luminance" maskUnits="userSpaceOnUse" x="105" y="5" width="4" height="21">
<path d="M108.388 5.95239H105.723V25.6067H108.388V5.95239Z" fill="white"/>
</mask>
<g mask="url(#mask4_508_5684)">
<path d="M108.388 5.95239H105.723V25.6067H108.388V5.95239Z" fill="url(#paint4_linear_508_5684)"/>
</g>
<mask id="mask5_508_5684" style="mask-type:luminance" maskUnits="userSpaceOnUse" x="113" y="5" width="16" height="22">
<path d="M117.841 6.07742C116.816 6.57366 115.943 7.33591 115.312 8.28476C114.699 9.19757 114.374 10.2734 114.379 11.3732C114.379 13.7476 116.614 15.5533 121.085 16.7903C124.195 17.6351 125.751 18.8046 125.751 20.299C125.768 20.9999 125.523 21.6819 125.063 22.2106C124.584 22.7475 123.976 23.1526 123.296 23.3874C122.564 23.6524 121.79 23.7852 121.01 23.7797C120.009 23.7763 119.033 23.4679 118.211 22.8955C117.36 22.3382 116.657 21.5816 116.164 20.6913L113.723 21.8712C114.41 23.1766 115.431 24.2766 116.681 25.0593C117.948 25.8683 119.423 26.2922 120.926 26.2797C122.234 26.2977 123.531 26.0499 124.74 25.5512C125.812 25.1177 126.746 24.401 127.443 23.4777C128.102 22.5756 128.447 21.4819 128.425 20.3644C128.458 19.3225 128.119 18.3031 127.471 17.4877C126.804 16.6924 125.97 16.0545 125.029 15.6197C123.879 15.0812 122.688 14.6346 121.468 14.2841C120.336 13.9893 119.244 13.5608 118.214 13.0076C117.876 12.8407 117.592 12.5825 117.394 12.2623C117.195 11.942 117.091 11.5726 117.091 11.1957C117.081 10.5502 117.295 9.9212 117.695 9.41489C118.117 8.88332 118.667 8.4677 119.293 8.20693C119.961 7.91575 120.683 7.76729 121.412 7.77106C122.28 7.74406 123.14 7.95276 123.9 8.37504C124.616 8.81167 125.218 9.41379 125.654 10.131L128.009 9.03506C127.439 7.89892 126.546 6.95665 125.443 6.32649C124.224 5.61056 122.831 5.24635 121.418 5.27419C120.185 5.25628 118.964 5.52932 117.856 6.0712" fill="white"/>
</mask>
<g mask="url(#mask5_508_5684)">
<path d="M128.415 5.27759H113.715V26.2769H128.415V5.27759Z" fill="url(#paint5_linear_508_5684)"/>
</g>
<mask id="mask6_508_5684" style="mask-type:luminance" maskUnits="userSpaceOnUse" x="133" y="5" width="20" height="22">
<path d="M138.679 6.7097C137.094 7.62386 135.778 8.94184 134.866 10.5297C133.544 12.9036 133.197 15.699 133.897 18.3247C134.597 20.9505 136.29 23.2006 138.618 24.5994C140.946 25.9982 143.726 26.4358 146.37 25.8198C149.015 25.2038 151.316 23.5825 152.788 21.2987L150.629 19.9506C149.925 21.0682 148.95 21.9901 147.796 22.6312C146.605 23.295 145.263 23.6387 143.9 23.6289C142.538 23.6191 141.201 23.256 140.02 22.5751C138.834 21.886 137.848 20.9 137.158 19.714C136.459 18.5114 136.091 17.145 136.091 15.7539C136.091 14.3627 136.459 12.9963 137.158 11.7937C137.848 10.6069 138.834 9.61982 140.02 8.92948C141.2 8.24788 142.538 7.88468 143.901 7.87541C145.264 7.86613 146.606 8.21109 147.796 8.87656C148.956 9.52253 149.931 10.455 150.629 11.5851L152.788 10.2091C151.858 8.71696 150.565 7.48516 149.031 6.62875C147.446 5.74359 145.66 5.28461 143.846 5.29662C142.032 5.30862 140.251 5.7912 138.679 6.69724" fill="white"/>
</mask>
<g mask="url(#mask6_508_5684)">
<path d="M152.788 5.30835H133.463V26.2516H152.788V5.30835Z" fill="url(#paint6_linear_508_5684)"/>
</g>
<mask id="mask7_508_5684" style="mask-type:luminance" maskUnits="userSpaceOnUse" x="157" y="5" width="18" height="21">
<path d="M157.053 25.6071H159.998L165.802 11.6812L171.609 25.6071H174.555L165.802 5.28027L157.053 25.6071Z" fill="white"/>
</mask>
<g mask="url(#mask7_508_5684)">
<path d="M174.555 5.2771H157.053V25.6039H174.555V5.2771Z" fill="url(#paint7_linear_508_5684)"/>
</g>
<mask id="mask8_508_5684" style="mask-type:luminance" maskUnits="userSpaceOnUse" x="179" y="5" width="16" height="21">
<path d="M182.409 8.31281H188.048C188.497 8.30713 188.943 8.3937 189.357 8.5672C189.772 8.74069 190.147 8.99742 190.458 9.32152C190.785 9.63799 191.043 10.0182 191.217 10.4386C191.391 10.8589 191.477 11.3106 191.469 11.7655C191.477 12.2182 191.392 12.6677 191.218 13.0857C191.044 13.5037 190.785 13.881 190.458 14.1939C190.145 14.5145 189.769 14.7682 189.355 14.9394C188.941 15.1107 188.496 15.196 188.048 15.1901H182.409V8.31281ZM179.746 5.95292V25.6072H182.409V17.5625H188.3C189.329 17.5724 190.342 17.3012 191.23 16.7779C192.107 16.2668 192.837 15.5362 193.348 14.6577C193.863 13.776 194.135 12.7729 194.135 11.7515C194.135 10.73 193.863 9.72692 193.348 8.84519C192.836 7.9683 192.106 7.23895 191.23 6.72814C190.343 6.20246 189.33 5.93004 188.3 5.94047L179.746 5.95292Z" fill="white"/>
</mask>
<g mask="url(#mask8_508_5684)">
<path d="M194.135 5.95312H179.746V25.6074H194.135V5.95312Z" fill="url(#paint8_linear_508_5684)"/>
</g>
<mask id="mask9_508_5684" style="mask-type:luminance" maskUnits="userSpaceOnUse" x="199" y="5" width="13" height="21">
<path d="M199.742 5.95288V25.6072H212V23.2193H202.408V16.5101H211.58V14.2343H202.408V8.33768H212V5.95288H199.742Z" fill="white"/>
</mask>
<g mask="url(#mask9_508_5684)">
<path d="M212 5.95288H199.742V25.6072H212V5.95288Z" fill="url(#paint9_linear_508_5684)"/>
</g>
<mask id="mask10_508_5684" style="mask-type:luminance" maskUnits="userSpaceOnUse" x="140" y="30" width="5" height="7">
<path d="M140.334 30.5417V36.9894H144.636V36.2951H141.118V34.0567H144.272V33.3593H141.118V31.2391H144.536V30.5417H140.334Z" fill="white"/>
</mask>
<g mask="url(#mask10_508_5684)">
<path d="M144.636 30.5417H140.334V36.9894H144.636V30.5417Z" fill="url(#paint10_linear_508_5684)"/>
</g>
<mask id="mask11_508_5684" style="mask-type:luminance" maskUnits="userSpaceOnUse" x="153" y="30" width="6" height="7">
<path d="M157.637 30.5417V35.8375L153.808 30.5884H153.033V36.9894H153.78V31.7124L157.618 36.9894H158.386V30.5417H157.637Z" fill="white"/>
</mask>
<g mask="url(#mask11_508_5684)">
<path d="M158.386 30.5417H153.033V36.9894H158.386V30.5417Z" fill="url(#paint11_linear_508_5684)"/>
</g>
<mask id="mask12_508_5684" style="mask-type:luminance" maskUnits="userSpaceOnUse" x="166" y="30" width="6" height="7">
<path d="M166.781 30.5417V36.9894H171.083V36.2951H167.565V34.0567H170.719V33.3593H167.565V31.2391H170.983V30.5417H166.781Z" fill="white"/>
</mask>
<g mask="url(#mask12_508_5684)">
<path d="M171.083 30.5417H166.781V36.9894H171.083V30.5417Z" fill="url(#paint12_linear_508_5684)"/>
</g>
<mask id="mask13_508_5684" style="mask-type:luminance" maskUnits="userSpaceOnUse" x="179" y="30" width="6" height="7">
<path d="M180.26 31.2394H181.386C181.784 31.2153 182.179 31.3143 182.519 31.5227C182.655 31.6259 182.763 31.7618 182.834 31.918C182.904 32.0742 182.933 32.2455 182.92 32.4162C182.926 32.6108 182.882 32.8037 182.792 32.9766C182.708 33.1295 182.586 33.2582 182.438 33.3502C182.272 33.4542 182.089 33.526 181.896 33.5619C181.677 33.6042 181.454 33.625 181.231 33.6242H180.26V31.2394ZM179.477 30.542V36.9897H180.26V34.2562H181.085L183.085 36.9897H184.018L181.924 34.2095C182.408 34.1404 182.858 33.9228 183.212 33.5868C183.373 33.4299 183.499 33.2412 183.583 33.0326C183.666 32.8241 183.705 32.6003 183.697 32.3758C183.7 32.1163 183.644 31.8597 183.533 31.6255C183.423 31.4002 183.267 31.2007 183.075 31.0402C182.868 30.8684 182.629 30.7393 182.372 30.6603C182.079 30.5692 181.774 30.5241 181.467 30.5265L179.477 30.542Z" fill="white"/>
</mask>
<g mask="url(#mask13_508_5684)">
<path d="M184.027 30.5417H179.477V36.9894H184.027V30.5417Z" fill="url(#paint13_linear_508_5684)"/>
</g>
<mask id="mask14_508_5684" style="mask-type:luminance" maskUnits="userSpaceOnUse" x="192" y="30" width="7" height="7">
<path d="M192.422 33.7517C192.414 34.184 192.494 34.6135 192.657 35.0139C192.82 35.4142 193.063 35.7772 193.371 36.0804C194.037 36.6933 194.915 37.0227 195.819 36.9989C196.65 37.0088 197.467 36.7844 198.177 36.3513V33.7828H196.049V34.4335H197.436V35.9901C196.951 36.2243 196.42 36.3446 195.881 36.3419C194.295 36.3419 193.188 35.2803 193.188 33.761C193.182 33.4229 193.242 33.0869 193.366 32.7722C193.49 32.4575 193.674 32.1704 193.909 31.9273C194.164 31.6799 194.466 31.4862 194.798 31.3579C195.129 31.2295 195.483 31.1691 195.838 31.1801C196.669 31.1799 197.468 31.5064 198.062 32.0892L198.096 32.1203V31.233C197.447 30.7479 196.653 30.4966 195.844 30.5201C193.863 30.5201 192.422 31.8868 192.422 33.7672" fill="white"/>
</mask>
<g mask="url(#mask14_508_5684)">
<path d="M198.185 30.4951H192.422V36.9895H198.185V30.4951Z" fill="url(#paint14_linear_508_5684)"/>
</g>
<mask id="mask15_508_5684" style="mask-type:luminance" maskUnits="userSpaceOnUse" x="206" y="30" width="6" height="7">
<path d="M211.185 30.6755L209.303 33.6176L207.421 30.6849L207.415 30.6755H206.578L208.908 34.2434V36.9893H209.664V34.2527L212 30.6755H211.185Z" fill="white"/>
</mask>
<g mask="url(#mask15_508_5684)">
<path d="M212.003 30.6755H206.582V36.9924H212.003V30.6755Z" fill="url(#paint15_linear_508_5684)"/>
</g>
<defs>
<linearGradient id="paint0_linear_508_5684" x1="13.7496" y1="-3.6351" x2="13.7496" y2="27.7651" gradientUnits="userSpaceOnUse">
<stop stop-color="#ABD6A0"/>
<stop offset="0.37" stop-color="#66A7A4"/>
<stop offset="0.8" stop-color="#1D75A7"/>
<stop offset="1" stop-color="#0061A9"/>
</linearGradient>
<linearGradient id="paint1_linear_508_5684" x1="41.5501" y1="-5.06497" x2="41.5501" y2="25.9098" gradientUnits="userSpaceOnUse">
<stop stop-color="#ABD6A0"/>
<stop offset="0.37" stop-color="#66A7A4"/>
<stop offset="0.8" stop-color="#1D75A7"/>
<stop offset="1" stop-color="#0061A9"/>
</linearGradient>
<linearGradient id="paint2_linear_508_5684" x1="61.1986" y1="-5.06521" x2="61.1986" y2="25.9096" gradientUnits="userSpaceOnUse">
<stop stop-color="#ABD6A0"/>
<stop offset="0.37" stop-color="#66A7A4"/>
<stop offset="0.8" stop-color="#1D75A7"/>
<stop offset="1" stop-color="#0061A9"/>
</linearGradient>
<linearGradient id="paint3_linear_508_5684" x1="85.0034" y1="-5.06516" x2="85.0034" y2="25.9096" gradientUnits="userSpaceOnUse">
<stop stop-color="#ABD6A0"/>
<stop offset="0.37" stop-color="#66A7A4"/>
<stop offset="0.8" stop-color="#1D75A7"/>
<stop offset="1" stop-color="#0061A9"/>
</linearGradient>
<linearGradient id="paint4_linear_508_5684" x1="102.518" y1="-5.06545" x2="102.518" y2="25.9094" gradientUnits="userSpaceOnUse">
<stop stop-color="#ABD6A0"/>
<stop offset="0.37" stop-color="#66A7A4"/>
<stop offset="0.8" stop-color="#1D75A7"/>
<stop offset="1" stop-color="#0061A9"/>
</linearGradient>
<linearGradient id="paint5_linear_508_5684" x1="116.586" y1="-5.06467" x2="116.586" y2="25.9101" gradientUnits="userSpaceOnUse">
<stop stop-color="#ABD6A0"/>
<stop offset="0.37" stop-color="#66A7A4"/>
<stop offset="0.8" stop-color="#1D75A7"/>
<stop offset="1" stop-color="#0061A9"/>
</linearGradient>
<linearGradient id="paint6_linear_508_5684" x1="138.699" y1="-5.06504" x2="138.699" y2="25.9098" gradientUnits="userSpaceOnUse">
<stop stop-color="#ABD6A0"/>
<stop offset="0.37" stop-color="#66A7A4"/>
<stop offset="0.8" stop-color="#1D75A7"/>
<stop offset="1" stop-color="#0061A9"/>
</linearGradient>
<linearGradient id="paint7_linear_508_5684" x1="161.394" y1="-5.06516" x2="161.394" y2="25.9096" gradientUnits="userSpaceOnUse">
<stop stop-color="#ABD6A0"/>
<stop offset="0.37" stop-color="#66A7A4"/>
<stop offset="0.8" stop-color="#1D75A7"/>
<stop offset="1" stop-color="#0061A9"/>
</linearGradient>
<linearGradient id="paint8_linear_508_5684" x1="182.481" y1="-5.06472" x2="182.481" y2="25.9101" gradientUnits="userSpaceOnUse">
<stop stop-color="#ABD6A0"/>
<stop offset="0.37" stop-color="#66A7A4"/>
<stop offset="0.8" stop-color="#1D75A7"/>
<stop offset="1" stop-color="#0061A9"/>
</linearGradient>
<linearGradient id="paint9_linear_508_5684" x1="201.361" y1="-5.06497" x2="201.361" y2="25.9098" gradientUnits="userSpaceOnUse">
<stop stop-color="#ABD6A0"/>
<stop offset="0.37" stop-color="#66A7A4"/>
<stop offset="0.8" stop-color="#1D75A7"/>
<stop offset="1" stop-color="#0061A9"/>
</linearGradient>
<linearGradient id="paint10_linear_508_5684" x1="137.339" y1="30.4745" x2="137.339" y2="37.1538" gradientUnits="userSpaceOnUse">
<stop stop-color="#ABD6A0"/>
<stop offset="0.501207" stop-color="#66A7A4"/>
<stop offset="0.8" stop-color="#1D75A7"/>
<stop offset="1" stop-color="#0061A9"/>
</linearGradient>
<linearGradient id="paint11_linear_508_5684" x1="150.279" y1="30.4745" x2="150.279" y2="37.1538" gradientUnits="userSpaceOnUse">
<stop stop-color="#ABD6A0"/>
<stop offset="0.37" stop-color="#66A7A4"/>
<stop offset="0.8" stop-color="#1D75A7"/>
<stop offset="1" stop-color="#0061A9"/>
</linearGradient>
<linearGradient id="paint12_linear_508_5684" x1="163.69" y1="30.4745" x2="163.69" y2="37.1538" gradientUnits="userSpaceOnUse">
<stop stop-color="#ABD6A0"/>
<stop offset="0.37" stop-color="#66A7A4"/>
<stop offset="0.8" stop-color="#1D75A7"/>
<stop offset="1" stop-color="#0061A9"/>
</linearGradient>
<linearGradient id="paint13_linear_508_5684" x1="176.542" y1="30.4741" x2="176.542" y2="37.1534" gradientUnits="userSpaceOnUse">
<stop stop-color="#ABD6A0"/>
<stop offset="0.37" stop-color="#66A7A4"/>
<stop offset="0.8" stop-color="#1D75A7"/>
<stop offset="1" stop-color="#0061A9"/>
</linearGradient>
<linearGradient id="paint14_linear_508_5684" x1="199.955" y1="30.4743" x2="199.955" y2="37.1536" gradientUnits="userSpaceOnUse">
<stop stop-color="#ABD6A0"/>
<stop offset="0.37" stop-color="#66A7A4"/>
<stop offset="0.8" stop-color="#1D75A7"/>
<stop offset="1" stop-color="#0061A9"/>
</linearGradient>
<linearGradient id="paint15_linear_508_5684" x1="210.008" y1="30.4741" x2="210.008" y2="36.736" gradientUnits="userSpaceOnUse">
<stop stop-color="#ABD6A0"/>
<stop offset="0.37" stop-color="#66A7A4"/>
<stop offset="0.8" stop-color="#1D75A7"/>
<stop offset="1" stop-color="#0061A9"/>
</linearGradient>
</defs>
</svg>
