<svg width="37" height="37" viewBox="0 0 37 37" fill="none" xmlns="http://www.w3.org/2000/svg">
<path fill-rule="evenodd" clip-rule="evenodd" d="M24.6654 10.4062C23.601 10.4062 22.7383 11.269 22.7383 12.3333C22.7383 13.3976 23.601 14.2604 24.6654 14.2604C25.7297 14.2604 26.5924 13.3976 26.5924 12.3333C26.5924 11.269 25.7297 10.4062 24.6654 10.4062ZM20.4258 12.3333C20.4258 9.99188 22.3239 8.09375 24.6654 8.09375C27.0068 8.09375 28.9049 9.99188 28.9049 12.3333C28.9049 14.6748 27.0068 16.5729 24.6654 16.5729C22.3239 16.5729 20.4258 14.6748 20.4258 12.3333ZM9.80704 17.887C8.91748 16.9975 7.49056 16.95 6.54379 17.7783L3.84344 20.1413C3.36286 20.5617 2.63238 20.513 2.21188 20.0324C1.79137 19.5519 1.84007 18.8214 2.32064 18.4009L5.02101 16.0381C6.88399 14.408 9.6918 14.5015 11.4422 16.2519L18.0556 22.8652C18.7178 23.5274 19.7601 23.6177 20.5263 23.0792L20.986 22.7561C23.1911 21.2064 26.1743 21.386 28.1776 23.189L33.1471 27.6617C33.6218 28.0889 33.6604 28.8199 33.2332 29.2946C32.806 29.7691 32.0749 29.8077 31.6002 29.3805L26.6307 24.9078C25.4286 23.826 23.6386 23.7184 22.3157 24.6482L21.856 24.9713C20.1703 26.1558 17.8771 25.9572 16.4204 24.5005L9.80704 17.887Z" fill="#9AC0DC"/>
<path fill-rule="evenodd" clip-rule="evenodd" d="M18.4102 1.92725H18.5872C22.146 1.92723 24.9348 1.92722 27.1109 2.21978C29.3382 2.51923 31.0958 3.14413 32.4753 4.52363C33.8548 5.90313 34.4796 7.66066 34.7792 9.88797C35.0716 12.064 35.0716 14.8529 35.0716 18.4117V18.5887C35.0716 22.1474 35.0716 24.9363 34.7792 27.1124C34.4796 29.3396 33.8548 31.0973 32.4753 32.4768C31.0958 33.8562 29.3382 34.4811 27.1109 34.7806C24.9348 35.0731 22.146 35.0731 18.5872 35.0731H18.4102C14.8515 35.0731 12.0625 35.0731 9.8865 34.7806C7.65919 34.4811 5.90166 33.8562 4.52216 32.4768C3.14267 31.0973 2.51777 29.3396 2.21831 27.1124C1.92575 24.9363 1.92577 22.1474 1.92578 18.5887V18.4117C1.92577 14.8529 1.92575 12.064 2.21831 9.88797C2.51777 7.66066 3.14267 5.90313 4.52216 4.52363C5.90166 3.14413 7.65919 2.51923 9.8865 2.21978C12.0625 1.92722 14.8515 1.92723 18.4102 1.92725ZM10.1946 4.51165C8.22375 4.77663 7.03556 5.28059 6.15735 6.15881C5.27912 7.03702 4.77517 8.22522 4.51019 10.1961C4.24073 12.2002 4.23828 14.8337 4.23828 18.5002C4.23828 22.1666 4.24073 24.8 4.51019 26.8042C4.77517 28.7751 5.27912 29.9632 6.15735 30.8415C7.03556 31.7198 8.22375 32.2238 10.1946 32.4886C12.1988 32.7581 14.8323 32.7606 18.4987 32.7606C22.1651 32.7606 24.7986 32.7581 26.8027 32.4886C28.7736 32.2238 29.9618 31.7198 30.84 30.8415C31.7183 29.9632 32.2223 28.7751 32.4872 26.8042C32.7566 24.8 32.7591 22.1666 32.7591 18.5002C32.7591 14.8337 32.7566 12.2002 32.4872 10.1961C32.2223 8.22522 31.7183 7.03702 30.84 6.15881C29.9618 5.28059 28.7736 4.77663 26.8027 4.51165C24.7986 4.2422 22.1651 4.23975 18.4987 4.23975C14.8323 4.23975 12.1988 4.2422 10.1946 4.51165Z" fill="#0060A9"/>
</svg>
