<svg width="32" height="32" viewBox="0 0 32 32" fill="none" xmlns="http://www.w3.org/2000/svg">
<mask id="mask0_508_5686" style="mask-type:luminance" maskUnits="userSpaceOnUse" x="0" y="0" width="32" height="32">
<path d="M14.4004 0.336414C13.9212 0.59567 13.5238 0.983623 13.2529 1.45664C12.982 1.92965 12.8483 2.46895 12.867 3.01385C12.8826 3.39081 12.8205 3.76695 12.6845 4.11885C12.5486 4.47074 12.3418 4.79087 12.0769 5.0593L11.4828 5.65083C11.198 5.91772 10.8629 6.12511 10.4971 6.26089C10.1312 6.39667 9.74205 6.4581 9.35223 6.44161C8.74506 6.43781 8.15206 6.62513 7.65707 6.9771C7.39328 7.16541 7.16212 7.39574 6.97279 7.65891C6.62445 8.15017 6.43733 8.73768 6.43733 9.3401C6.43733 9.94251 6.62445 10.53 6.97279 11.0213C7.06499 11.155 7.16909 11.28 7.28383 11.3949C7.40043 11.5089 7.52631 11.6131 7.66018 11.7062C8.15517 12.0582 8.74818 12.2455 9.35534 12.2417C9.74516 12.2252 10.1343 12.2866 10.5002 12.4224C10.866 12.5582 11.2011 12.7656 11.486 13.0325L12.08 13.6271C12.3457 13.9122 12.5523 14.2472 12.6879 14.6128C12.8235 14.9783 12.8854 15.367 12.8701 15.7566C12.8633 16.3658 13.0507 16.9612 13.4051 17.4565C13.5875 17.7263 13.8198 17.9588 14.0893 18.1414C14.5239 18.4511 15.0355 18.6347 15.5676 18.6718C16.0998 18.709 16.6318 18.5983 17.1051 18.3519C17.5784 18.1055 17.9745 17.7331 18.2497 17.2757C18.5249 16.8183 18.6685 16.2937 18.6647 15.7597C18.6484 15.3696 18.7099 14.9801 18.8455 14.6139C18.9812 14.2478 19.1883 13.9123 19.4548 13.6271L20.0488 13.0325C20.3401 12.7611 20.6831 12.5513 21.0571 12.4154C21.4312 12.2796 21.8287 12.2205 22.2261 12.2417C22.616 12.2249 23.0053 12.2861 23.3711 12.4219C23.737 12.5577 24.0721 12.7653 24.3567 13.0325L24.7922 13.4652C25.4017 14.0799 25.7437 14.9108 25.7437 15.7769C25.7437 16.6429 25.4017 17.4738 24.7922 18.0885L24.3598 18.5212C24.0744 18.7873 23.7392 18.9941 23.3735 19.1298C23.0078 19.2656 22.6189 19.3275 22.2292 19.312C21.6209 19.3067 21.0264 19.4942 20.5309 19.8475C20.2678 20.0378 20.0367 20.269 19.8467 20.5324C19.497 21.023 19.3099 21.611 19.3117 22.2136C19.3412 23.0104 19.0537 23.7863 18.5123 24.3712L17.9369 24.9471C17.4307 25.4555 16.7442 25.7431 16.0271 25.7472H15.7503C15.3318 25.7485 14.9173 25.6667 14.5307 25.5063C14.1442 25.346 13.7933 25.1104 13.4984 24.8133L13.0474 24.3618C12.7785 24.0721 12.5695 23.7321 12.4323 23.3613C12.2951 22.9905 12.2325 22.5963 12.248 22.2012C12.2479 21.5998 12.0609 21.0134 11.713 20.5231C11.5283 20.2552 11.2964 20.0231 11.0287 19.8382C10.538 19.4895 9.95095 19.3023 9.34912 19.3027C8.55228 19.3317 7.77632 19.044 7.19051 18.5026L6.61509 17.9266C6.07438 17.3403 5.78803 16.5633 5.81883 15.766C5.81908 15.1641 5.6309 14.5772 5.28074 14.0879C5.18779 13.9538 5.08375 13.8278 4.9697 13.7112C4.85281 13.5987 4.72808 13.4946 4.59646 13.3999C4.26023 13.1595 3.87659 12.9937 3.47121 12.9137C3.06582 12.8336 2.64804 12.8412 2.2458 12.9358C1.84357 13.0304 1.46615 13.2099 1.13881 13.4623C0.811463 13.7147 0.541736 14.0341 0.347671 14.3992C0.119538 14.818 0 15.2874 0 15.7644C0 16.2414 0.119538 16.7108 0.347671 17.1296C0.604938 17.6073 0.989968 18.0039 1.45965 18.275C1.92933 18.546 2.46513 18.6809 3.00705 18.6645C3.38809 18.6498 3.7681 18.7132 4.12378 18.8508C4.47946 18.9884 4.8033 19.1972 5.07545 19.4646L5.64776 20.0405C5.91681 20.3296 6.12619 20.669 6.2639 21.0392C6.40161 21.4095 6.46493 21.8033 6.45024 22.1981C6.44802 22.8008 6.63518 23.3889 6.98523 23.8793C7.07817 24.0133 7.18222 24.1393 7.29627 24.256C7.41359 24.3692 7.53941 24.4733 7.67263 24.5673C8.16158 24.9172 8.74803 25.1046 9.34912 25.1028C9.74402 25.088 10.138 25.1513 10.5084 25.2892C10.8788 25.427 11.2184 25.6366 11.5077 25.906L12.0831 26.4789C12.3502 26.7513 12.5589 27.0754 12.6964 27.4314C12.8338 27.7875 12.8972 28.1678 12.8825 28.5492C12.8654 29.0918 12.9998 29.6284 13.2707 30.0986C13.5416 30.5689 13.9382 30.9541 14.4159 31.2111C14.8343 31.4394 15.3033 31.5591 15.7798 31.5591C16.2564 31.5591 16.7253 31.4394 17.1437 31.2111C17.6206 30.9529 18.0167 30.5674 18.2879 30.0976C18.5592 29.6277 18.695 29.0917 18.6803 28.5492C18.6652 28.168 18.7281 27.7878 18.865 27.4318C19.0019 27.0758 19.21 26.7515 19.4765 26.4789L20.052 25.9029C20.6378 25.3614 21.4137 25.0738 22.2106 25.1028C22.8125 25.1042 23.3999 24.9169 23.8902 24.5673C24.023 24.474 24.1478 24.3699 24.2634 24.256C24.3765 24.1385 24.4805 24.0126 24.5744 23.8793C24.9288 23.3852 25.1162 22.7907 25.1094 22.1825C25.094 21.7924 25.1559 21.4032 25.2915 21.0371C25.427 20.6711 25.6337 20.3356 25.8995 20.0499L26.4936 19.4552C26.7615 19.1898 27.0813 18.9826 27.4329 18.8465C27.7845 18.7105 28.1604 18.6485 28.5371 18.6645C29.0816 18.6838 29.6207 18.5504 30.0934 18.2791C30.5661 18.0079 30.9536 17.6097 31.212 17.1296C31.4401 16.7108 31.5597 16.2414 31.5597 15.7644C31.5597 15.2874 31.4401 14.818 31.212 14.3992C30.9499 13.9229 30.5599 13.5294 30.0861 13.2631C29.6124 12.9968 29.0737 12.8684 28.5309 12.8924C28.1545 12.9072 27.7792 12.8443 27.4282 12.7077C27.0772 12.5711 26.758 12.3638 26.4904 12.0985L25.9866 11.5941C25.6959 11.3034 25.4679 10.9562 25.3165 10.5739C25.1651 10.1916 25.0936 9.78229 25.1063 9.37123C25.1116 8.76327 24.9243 8.16926 24.5713 7.67448C24.4774 7.54215 24.3734 7.41725 24.2603 7.30089C24.1436 7.18699 24.0177 7.08286 23.8839 6.98955C23.3939 6.64185 22.8081 6.45509 22.2074 6.45509C21.6068 6.45509 21.021 6.64185 20.5309 6.98955C20.2654 7.17805 20.0331 7.40953 19.8436 7.67448C19.4909 8.17061 19.3037 8.76549 19.3086 9.37435C19.325 9.76453 19.2637 10.1541 19.128 10.5203C18.9924 10.8864 18.7852 11.2219 18.5185 11.507L17.9244 12.1016C17.3249 12.6118 16.5637 12.892 15.7767 12.892C14.9898 12.892 14.2285 12.6118 13.629 12.1016L13.0349 11.507C12.525 10.9064 12.245 10.1439 12.245 9.35567C12.245 8.56748 12.525 7.80496 13.0349 7.20437L13.629 6.61284C13.9139 6.34582 14.2489 6.13814 14.6147 6.00185C14.9805 5.86556 15.3696 5.80339 15.7596 5.81895C16.3672 5.82532 16.9609 5.63775 17.4548 5.28346C17.7187 5.09404 17.9498 4.86267 18.1391 4.59853C18.3792 4.26224 18.5448 3.87849 18.6247 3.47295C18.7046 3.06742 18.6971 2.64947 18.6025 2.2471C18.508 1.84472 18.3287 1.46721 18.0765 1.13983C17.8244 0.81246 17.5053 0.542782 17.1406 0.34886C16.7224 0.119961 16.2534 0 15.7767 0C15.3001 0 14.8311 0.119961 14.4128 0.34886" fill="white"/>
</mask>
<g mask="url(#mask0_508_5686)">
<path d="M31.6561 -0.0124512H-0.128906V31.6873H31.6561V-0.0124512Z" fill="url(#paint0_linear_508_5686)"/>
</g>
<defs>
<linearGradient id="paint0_linear_508_5686" x1="13.7496" y1="-3.6351" x2="13.7496" y2="27.7651" gradientUnits="userSpaceOnUse">
<stop stop-color="#ABD6A0"/>
<stop offset="0.37" stop-color="#66A7A4"/>
<stop offset="0.8" stop-color="#1D75A7"/>
<stop offset="1" stop-color="#0061A9"/>
</linearGradient>
</defs>
</svg>
