<svg width="1281" height="225" viewBox="0 0 1281 225" fill="none" xmlns="http://www.w3.org/2000/svg">
<path d="M655.088 36.8486H638.995V155.506H655.088V36.8486Z" fill="white"/>
<path d="M160.535 73.8948L157.493 70.8312C155.736 69.0828 154.358 66.9899 153.447 64.6839C152.536 62.3778 152.11 59.9083 152.197 57.4299C152.222 53.7576 151.085 50.1717 148.949 47.1863C147.622 45.3037 145.937 43.7025 143.99 42.4747C142.042 41.247 139.871 40.417 137.602 40.0327C135.333 39.6483 133.011 39.7171 130.768 40.2352C128.526 40.7532 126.408 41.7103 124.536 43.0512C122.93 44.179 121.532 45.5783 120.405 47.1863C118.268 50.1704 117.137 53.7586 117.175 57.4299C117.269 59.7865 116.894 62.1382 116.072 64.3484C115.25 66.5587 113.997 68.5834 112.386 70.3049L108.819 73.8948C107.059 75.5321 104.989 76.7985 102.731 77.6186C100.473 78.4388 98.0726 78.796 95.6737 78.669C93.3202 78.7685 90.9706 78.3976 88.7619 77.5779C86.5533 76.7582 84.5299 75.5061 82.8102 73.8948L79.2236 70.3049C76.1462 66.6821 74.4563 62.0818 74.4563 57.3265C74.4563 52.5713 76.1462 47.9709 79.2236 44.3481L82.8102 40.7582C84.5299 39.1469 86.5533 37.8948 88.7619 37.0751C90.9706 36.2554 93.3202 35.8844 95.6737 35.984C99.3494 36.0158 102.94 34.8771 105.927 32.7324C107.514 31.5952 108.903 30.2046 110.039 28.6161C111.486 26.5834 112.484 24.2651 112.965 21.816C113.446 19.367 113.399 16.8434 112.829 14.4136C112.258 11.9839 111.177 9.70387 109.656 7.72558C108.136 5.74729 106.211 4.11616 104.011 2.9412C101.484 1.56759 98.653 0.848145 95.7769 0.848145C92.9007 0.848145 90.0701 1.56759 87.5424 2.9412C84.6493 4.51119 82.2506 6.8571 80.6153 9.71562C78.98 12.5742 78.173 15.8323 78.2847 19.1244C78.3807 21.3975 78.0065 23.666 77.1858 25.7877C76.365 27.9094 75.1153 29.8386 73.5149 31.4543L69.9281 35.0442C68.2072 36.6537 66.1838 37.9047 63.9754 38.7243C61.7671 39.5439 59.4181 39.9159 57.0648 39.8184C53.3978 39.7864 49.815 40.9182 46.8306 43.0512C45.2475 44.2004 43.8589 45.5965 42.7179 47.1863C40.6191 50.1503 39.492 53.6936 39.492 57.3265C39.492 60.9595 40.6191 64.5027 42.7179 67.4667C43.806 69.1068 45.2107 70.5127 46.8494 71.6018C49.8349 73.7325 53.4169 74.864 57.0836 74.8346C59.4364 74.7413 61.7844 75.1151 63.9922 75.9345C66.1999 76.7539 68.2237 78.0027 69.9469 79.6088L73.5337 83.1987C75.14 84.9223 76.3888 86.9479 77.2076 89.1579C78.0263 91.368 78.3988 93.7186 78.3035 96.0738C78.2718 99.7528 79.4094 103.347 81.5522 106.336C82.1078 107.144 82.7364 107.899 83.43 108.592C84.1229 109.285 84.8771 109.914 85.6834 110.471C88.6397 112.576 92.1774 113.706 95.8051 113.706C99.4328 113.706 102.97 112.576 105.927 110.471C108.251 108.852 110.149 106.693 111.457 104.179C112.765 101.665 113.445 98.8707 113.438 96.0361C113.346 93.6798 113.723 91.3286 114.544 89.1187C115.366 86.9087 116.618 84.8839 118.227 83.1612L121.795 79.5711C125.417 76.4895 130.016 74.7975 134.771 74.7975C139.525 74.7975 144.124 76.4895 147.747 79.5711L150.357 82.2026C154.036 85.9102 156.1 90.9235 156.1 96.1489C156.1 101.374 154.036 106.388 150.357 110.095L147.747 112.708C146.026 114.318 144.002 115.571 141.795 116.394C139.587 117.216 137.238 117.593 134.883 117.501C131.21 117.462 127.619 118.594 124.63 120.734C123.038 121.873 121.649 123.27 120.518 124.869C118.399 127.819 117.268 131.366 117.288 135C117.455 139.817 115.714 144.506 112.443 148.044L108.969 151.521C107.458 153.043 105.662 154.252 103.683 155.078C101.705 155.903 99.5825 156.33 97.4388 156.333H95.7675C90.6683 156.33 85.7785 154.302 82.1718 150.694L79.449 147.969C76.183 144.429 74.448 139.74 74.6227 134.924C74.6311 131.287 73.5017 127.737 71.3929 124.775C70.826 123.975 70.1982 123.221 69.515 122.519C68.8119 121.837 68.0587 121.209 67.2617 120.64C64.3018 118.543 60.7663 117.414 57.14 117.407C54.7569 117.501 52.3788 117.122 50.1423 116.293C47.9058 115.464 45.8548 114.201 44.1075 112.576L40.6335 109.118C37.3604 105.582 35.6245 100.89 35.8075 96.0738C35.8096 92.437 34.6806 88.8897 32.5774 85.9241C32.0202 85.1175 31.3917 84.3627 30.6996 83.6686C28.7497 81.7061 26.3648 80.2319 23.7385 79.3656C21.1123 78.4992 18.3188 78.2653 15.5852 78.6829C12.8517 79.1004 10.255 80.1577 8.00642 81.7686C5.75785 83.3795 3.92082 85.4988 2.64448 87.954C1.26713 90.479 0.54541 93.3097 0.54541 96.1865C0.54541 99.0633 1.26713 101.894 2.64448 104.419C4.19433 107.306 6.51807 109.703 9.35452 111.34C12.191 112.977 15.4277 113.789 18.7003 113.685C21.0021 113.599 23.297 113.985 25.4445 114.819C27.5919 115.653 29.5464 116.917 31.1878 118.534L34.6621 121.993C37.9281 125.533 39.6628 130.222 39.4881 135.037C39.486 138.674 40.6148 142.221 42.7179 145.187C43.2804 145.989 43.9085 146.744 44.5958 147.442C45.2943 148.137 46.055 148.766 46.8682 149.322C49.8243 151.443 53.3713 152.58 57.0084 152.574C59.3885 152.481 61.7635 152.86 63.9967 153.689C66.23 154.518 68.2776 155.781 70.0221 157.404L73.4961 160.881C75.1063 162.524 76.3649 164.477 77.1947 166.623C78.0245 168.769 78.4082 171.062 78.3223 173.362C78.2228 176.639 79.038 179.879 80.6767 182.717C82.3155 185.556 84.7126 187.881 87.5988 189.432C90.1231 190.805 92.9506 191.525 95.8239 191.525C98.6971 191.525 101.525 190.805 104.049 189.432C106.932 187.873 109.327 185.544 110.965 182.703C112.603 179.862 113.42 176.621 113.325 173.343C113.232 171.042 113.612 168.747 114.442 166.6C115.272 164.453 116.535 162.5 118.152 160.862L121.607 157.385C125.139 154.109 129.827 152.372 134.639 152.555C138.276 152.556 141.821 151.419 144.78 149.303C145.586 148.746 146.34 148.117 147.033 147.424C147.72 146.725 148.348 145.97 148.911 145.168C151.029 142.175 152.159 138.593 152.141 134.924C152.038 132.568 152.407 130.216 153.226 128.005C154.046 125.794 155.298 123.769 156.911 122.049L160.479 118.459C162.099 116.859 164.029 115.608 166.151 114.784C168.273 113.96 170.542 113.579 172.816 113.666C176.105 113.79 179.362 112.987 182.217 111.349C185.072 109.711 187.41 107.303 188.966 104.4C190.343 101.875 191.065 99.0445 191.065 96.1677C191.065 93.2909 190.343 90.4602 188.966 87.9352C187.408 85.0288 185.067 82.6179 182.209 80.9766C179.351 79.3352 176.09 78.5292 172.797 78.6502C170.526 78.7474 168.259 78.3735 166.139 77.552C164.019 76.7304 162.092 75.4789 160.479 73.8761" fill="white"/>
<path d="M319.609 141.108V155.506H237.809V36.8486H253.902V141.108H319.609Z" fill="white"/>
<path d="M442.721 113.986C442.844 120.041 441.759 126.059 439.529 131.689C437.299 137.319 433.969 142.446 429.734 146.772C425.499 151.097 420.445 154.534 414.867 156.88C409.289 159.226 403.299 160.434 397.249 160.434C391.198 160.434 385.208 159.226 379.63 156.88C374.052 154.534 368.998 151.097 364.763 146.772C360.528 142.446 357.198 137.319 354.969 131.689C352.739 126.059 351.653 120.041 351.776 113.986V36.9238H367.869V114.832C367.827 120.015 369.204 125.112 371.85 129.568C374.417 134.019 378.092 137.729 382.517 140.338C386.943 142.982 392.009 144.36 397.164 144.322C402.373 144.372 407.497 142.994 411.98 140.338C416.401 137.724 420.074 134.015 422.647 129.568C425.284 125.108 426.661 120.014 426.628 114.832V36.8486H442.721V113.986Z" fill="white"/>
<path d="M600.029 155.506H584.124V70.0796L540.933 114.832L497.592 70.0796V155.506H481.668V32.7891L540.933 93.1231L600.029 32.7891V155.506Z" fill="white"/>
<path d="M755.497 95.247C761.169 97.8848 766.194 101.734 770.22 106.524C774.148 111.441 776.192 117.6 775.984 123.892C776.112 130.638 774.028 137.24 770.051 142.687C765.86 148.236 760.238 152.538 753.788 155.13C746.491 158.143 738.658 159.64 730.766 159.528C721.682 159.618 712.768 157.058 705.114 152.16C697.56 147.447 691.391 140.812 687.237 132.932L701.978 125.809C704.966 131.176 709.205 135.741 714.334 139.116C719.297 142.568 725.191 144.43 731.235 144.454C735.939 144.478 740.61 143.677 745.037 142.086C749.142 140.662 752.814 138.209 755.704 134.962C758.476 131.775 759.957 127.665 759.854 123.44C759.854 114.394 750.464 107.326 731.686 102.239C704.707 94.7959 691.218 83.8944 691.218 69.5346C691.191 62.8954 693.153 56.4005 696.852 50.8892C700.66 45.1733 705.924 40.5793 712.1 37.5819C718.79 34.3067 726.155 32.652 733.601 32.7514C742.131 32.5902 750.539 34.7886 757.901 39.1044C764.559 42.9259 769.952 48.6176 773.412 55.4753L759.178 62.0726C756.549 57.7443 752.916 54.1144 748.587 51.4907C744.003 48.9306 738.809 47.67 733.564 47.8443C729.164 47.816 724.807 48.7125 720.776 50.4757C717 52.0526 713.681 54.5538 711.123 57.7496C708.712 60.8158 707.426 64.6178 707.48 68.5195C707.485 70.7928 708.122 73.0199 709.319 74.9517C710.517 76.8836 712.227 78.444 714.259 79.4586C720.478 82.7981 727.072 85.3851 733.902 87.1649C741.275 89.2784 748.47 91.9681 755.422 95.2094" fill="white"/>
<path d="M900.449 151.352C890.885 156.696 880.1 159.467 869.147 159.394C858.194 159.322 847.447 156.408 837.954 150.938C828.385 145.414 820.443 137.459 814.932 127.876C809.383 118.235 806.463 107.304 806.463 96.1772C806.463 85.0509 809.383 74.1198 814.932 64.4784C820.457 54.9361 828.398 47.0203 837.954 41.5288C847.443 36.0488 858.19 33.1281 869.145 33.0523C880.099 32.9765 890.886 35.7484 900.449 41.0965C909.718 46.2615 917.524 53.6993 923.134 62.7116L910.101 71.0192C905.887 64.1963 899.998 58.5668 892.994 54.667C885.922 50.668 877.925 48.5943 869.803 48.6523C861.468 48.5796 853.27 50.7755 846.085 55.0053C838.932 59.1735 832.984 65.1326 828.828 72.2973C824.609 79.554 822.386 87.8001 822.386 96.196C822.386 104.592 824.609 112.838 828.828 120.095C832.984 127.259 838.932 133.218 846.085 137.387C853.215 141.497 861.286 143.689 869.514 143.749C877.741 143.808 885.844 141.733 893.032 137.725C899.994 133.844 905.875 128.281 910.139 121.542L923.171 129.662C917.606 138.754 909.793 146.257 900.487 151.446" fill="white"/>
<path d="M1001.72 32.7891L1054.55 155.506H1036.78L1001.72 71.4329L966.663 155.506H948.879L1001.72 32.7891Z" fill="white"/>
<path d="M1155.24 41.5289C1160.53 44.6254 1164.93 49.0337 1168.03 54.3288C1171.12 59.6558 1172.76 65.7101 1172.76 71.8745C1172.76 78.039 1171.12 84.0932 1168.03 89.4202C1164.92 94.7075 1160.52 99.1135 1155.24 102.22C1149.87 105.377 1143.75 107.014 1137.53 106.957H1101.98V155.431H1085.89V36.8488H1137.53C1143.75 36.7976 1149.87 38.4413 1155.24 41.6041M1136.01 92.6155C1138.72 92.6533 1141.41 92.1397 1143.91 91.1058C1146.42 90.0719 1148.69 88.5392 1150.58 86.6009C1152.55 84.7092 1154.11 82.4303 1155.15 79.9073C1156.2 77.3843 1156.72 74.6718 1156.66 71.9403C1156.71 69.1985 1156.19 66.4767 1155.15 63.9425C1154.1 61.4082 1152.55 59.1152 1150.58 57.2045C1148.7 55.243 1146.43 53.6888 1143.93 52.6381C1141.42 51.5874 1138.73 51.0626 1136.01 51.096H1101.98V92.6155H1136.01Z" fill="white"/>
<path d="M1222.71 51.265V86.864H1278.09V100.585H1222.71V141.108H1280.64V155.506H1206.63V36.8486H1280.64V51.265H1222.71Z" fill="white"/>
<path d="M852.695 220.031H873.934V224.242H847.944V185.316H873.333V189.507H852.695V202.326H871.736V206.517H852.695V220.031Z" fill="white"/>
<path d="M952.41 217.287V185.316H956.935V224.242H952.297L929.124 192.383V224.242H924.617V185.598H929.293L952.41 217.287Z" fill="white"/>
<path d="M1012.35 220.031H1033.61V224.242H1007.62V185.316H1032.99V189.507H1012.35V202.326H1031.39V206.517H1012.35V220.031Z" fill="white"/>
<path d="M1084.29 224.242V185.316H1096.37C1098.22 185.292 1100.06 185.565 1101.83 186.124C1103.39 186.601 1104.84 187.38 1106.09 188.417C1107.25 189.381 1108.18 190.579 1108.84 191.932C1109.51 193.344 1109.86 194.895 1109.83 196.462C1109.88 197.818 1109.65 199.169 1109.14 200.429C1108.64 201.688 1107.87 202.827 1106.9 203.773C1104.76 205.801 1102.04 207.114 1099.13 207.532L1111.76 224.317H1106.13L1094.04 207.814H1089.08V224.317L1084.29 224.242ZM1094.88 203.924C1096.23 203.933 1097.58 203.801 1098.9 203.529C1100.06 203.318 1101.17 202.891 1102.17 202.27C1103.06 201.702 1103.8 200.92 1104.31 199.995C1104.87 198.964 1105.14 197.803 1105.1 196.631C1105.18 195.596 1105 194.558 1104.57 193.612C1104.14 192.666 1103.49 191.842 1102.66 191.218C1100.61 189.965 1098.22 189.368 1095.82 189.507H1089.04V203.924H1094.88Z" fill="white"/>
<path d="M1184.38 204.788V208.697H1192.78V218.095C1189.85 219.506 1186.64 220.233 1183.39 220.219C1173.81 220.219 1167.12 213.81 1167.12 204.638C1167.09 202.595 1167.45 200.564 1168.21 198.664C1168.96 196.764 1170.08 195.032 1171.5 193.567C1173.03 192.072 1174.86 190.902 1176.85 190.127C1178.85 189.352 1180.98 188.988 1183.12 189.056C1188.15 189.042 1192.98 191.014 1196.57 194.544L1196.76 194.732V189.376C1192.84 186.441 1188.05 184.924 1183.16 185.071C1171.22 185.071 1162.5 193.304 1162.5 204.675C1162.46 207.282 1162.94 209.872 1163.92 212.286C1164.91 214.701 1166.37 216.888 1168.23 218.716C1172.24 222.445 1177.54 224.467 1183.01 224.354C1188.03 224.417 1192.97 223.055 1197.25 220.426V204.92L1184.38 204.788Z" fill="white"/>
<path d="M1275.7 186.105L1264.34 203.867L1252.98 186.161L1252.96 186.105H1247.91L1261.96 207.645V224.241H1266.52V207.701L1280.64 186.105H1275.7Z" fill="white"/>
</svg>
