<svg width="35" height="34" viewBox="0 0 35 34" fill="none" xmlns="http://www.w3.org/2000/svg">
<path d="M29.1049 14.4707C29.1014 11.5888 28.0472 8.80697 26.1399 6.64616C24.2325 4.48535 21.6028 3.09373 18.743 2.73185V1.48765C18.743 1.0931 18.5863 0.714714 18.3073 0.435728C18.0282 0.156742 17.6497 0 17.2551 0C16.8604 0 16.4819 0.156742 16.2029 0.435728C15.9238 0.714714 15.7671 1.0931 15.7671 1.48765V2.73185C12.9074 3.09373 10.2776 4.48535 8.37029 6.64616C6.46295 8.80697 5.40878 11.5888 5.40527 14.4707V21.5572H29.1049V14.4707Z" fill="#0060A9"/>
<path d="M17.4719 33.5388C18.7922 33.5388 20.0584 33.0145 20.9919 32.0812C21.9255 31.1478 22.4498 29.8819 22.4498 28.562H12.4668C12.4739 29.8844 13.0045 31.1502 13.9424 32.0828C14.8802 33.0154 16.1492 33.5389 17.4719 33.5388Z" fill="#0060A9"/>
<path d="M33.5152 25.1546C32.6489 25.1979 31.7866 25.0104 31.0165 24.6112C30.2465 24.212 29.5962 23.6154 29.1324 22.8826H5.43283C4.9776 23.6173 4.33297 24.2159 3.56657 24.6157C2.80016 25.0154 1.94029 25.2016 1.07712 25.1546C0.944992 25.1317 0.809448 25.1379 0.679991 25.1729C0.550534 25.2079 0.430216 25.2707 0.327611 25.3571C0.225006 25.4434 0.142618 25.5511 0.0860309 25.6726C0.0294434 25.7942 0 25.9266 0 26.0607C0 26.1948 0.0294434 26.3272 0.0860309 26.4488C0.142618 26.5703 0.225006 26.678 0.327611 26.7644C0.430216 26.8507 0.550534 26.9135 0.679991 26.9485C0.809448 26.9835 0.944992 26.9897 1.07712 26.9668H33.5423C33.7558 26.9298 33.9494 26.8186 34.0889 26.6528C34.2284 26.487 34.305 26.2774 34.305 26.0607C34.305 25.8441 34.2284 25.6344 34.0889 25.4686C33.9494 25.3028 33.7558 25.1916 33.5423 25.1546H33.5152Z" fill="#0060A9"/>
<path d="M30.81 6.76163C30.8154 7.57169 30.5797 8.36505 30.1328 9.04083C29.686 9.71661 29.0483 10.2443 28.3008 10.5567C27.5532 10.8692 26.7295 10.9524 25.9345 10.7957C25.1395 10.6389 24.4092 10.2494 23.8362 9.67658C23.2633 9.10377 22.8736 8.37355 22.7168 7.57877C22.5601 6.78399 22.6432 5.96056 22.9558 5.21317C23.2683 4.46578 23.7962 3.8282 24.4721 3.38148C25.1481 2.93476 25.9416 2.69909 26.7519 2.70443C27.826 2.71152 28.854 3.14126 29.6135 3.9006C30.373 4.65994 30.8029 5.68778 30.81 6.76163Z" fill="#F72A2A"/>
</svg>
