<svg width="27" height="27" viewBox="0 0 27 27" fill="none" xmlns="http://www.w3.org/2000/svg">
<g clip-path="url(#clip0_610_935)">
<path d="M13.5426 5.10474C14.9348 5.10474 16.0316 4.00786 16.0316 2.61567C16.0316 1.22349 14.9348 0.126611 13.5426 0.126611C12.1504 0.126611 11.0535 1.26567 11.0535 2.61567C11.0535 4.00786 12.1504 5.10474 13.5426 5.10474ZM13.5426 0.970361C14.4707 0.970361 15.1879 1.72974 15.1879 2.61567C15.1879 3.5438 14.4285 4.26099 13.5426 4.26099C12.6145 4.26099 11.8973 3.50161 11.8973 2.61567C11.8973 1.72974 12.6145 0.970361 13.5426 0.970361ZM7.59414 4.64067C8.85977 4.64067 9.87226 3.62817 9.87226 2.36255C9.87226 1.09692 8.85977 0.126611 7.59414 0.126611C6.32852 0.126611 5.31602 1.13911 5.31602 2.40474C5.31602 3.67036 6.32852 4.64067 7.59414 4.64067ZM7.59414 0.970361C8.3957 0.970361 9.02852 1.60317 9.02852 2.40474C9.02852 3.16411 8.3957 3.79692 7.59414 3.79692C6.79258 3.79692 6.15977 3.16411 6.15977 2.36255C6.15977 1.60317 6.79258 0.970361 7.59414 0.970361ZM17.1285 2.40474C17.1285 2.5313 17.1285 2.65786 17.1707 2.74224C17.3395 3.79692 18.2676 4.64067 19.4066 4.64067C19.7863 4.64067 20.166 4.51411 20.4613 4.34536C20.5035 4.34536 20.5035 4.30317 20.5457 4.30317C20.5879 4.26099 20.6301 4.26099 20.6723 4.2188C21.3051 3.79692 21.6848 3.12192 21.6848 2.32036C21.6848 1.05474 20.6723 0.0422363 19.4066 0.0422363C18.141 0.0422363 17.1285 1.05474 17.1285 2.32036V2.40474ZM19.4066 0.970361C20.2082 0.970361 20.841 1.60317 20.841 2.40474C20.841 2.8688 20.5879 3.29067 20.2504 3.5438C19.9973 3.71255 19.7441 3.79692 19.4488 3.79692C18.6473 3.79692 18.0145 3.16411 18.0145 2.40474C18.0145 1.60317 18.6473 0.970361 19.4066 0.970361ZM21.9801 18.0563V14.175C22.1066 14.2172 22.2754 14.2594 22.4441 14.2594C23.1613 14.2594 23.7098 13.6688 23.7098 12.9094V8.01567C23.7098 7.67817 23.6676 7.38286 23.541 7.08755C23.541 7.00317 23.541 6.9188 23.4988 6.83442C23.1191 5.99067 22.3176 5.44224 21.4738 5.35786H17.5082C16.8754 5.35786 16.2848 5.61099 15.8629 6.03286H11.391C11.2645 6.03286 11.1379 6.03286 11.0535 6.07505C10.5895 5.65317 9.99883 5.40005 9.4082 5.40005H5.73789C4.38789 5.40005 3.24883 6.5813 3.24883 8.05786V12.9516C3.24883 13.2891 3.37539 13.6266 3.62852 13.8797C3.88164 14.1329 4.17695 14.3016 4.55664 14.3016C4.72539 14.3016 4.85195 14.2594 5.0207 14.2172V18.0985C2.53164 19.0688 1.18164 20.3766 1.18164 21.8532C1.18164 24.7219 6.62383 27 13.5426 27C20.4613 27 25.9035 24.7219 25.9035 21.8532C25.8613 20.3344 24.4691 19.0266 21.9801 18.0563ZM17.5504 6.20161H21.2629C22.1488 6.20161 22.9082 7.00317 22.9082 8.01567V12.8672C22.9082 13.1625 22.6973 13.3735 22.4441 13.3735C22.3176 13.3735 22.191 13.2891 22.1488 13.2469C22.0645 13.1625 22.0223 12.9938 22.0223 12.8672V9.70317C22.0223 9.49224 21.8535 9.2813 21.6004 9.2813C21.3895 9.2813 21.1785 9.45005 21.1785 9.70317V19.9969C21.1785 20.4188 20.8832 20.7563 20.5035 20.7563C20.1238 20.7563 19.8285 20.4188 19.8285 19.9969V14.3016C19.8285 14.0907 19.6598 13.8797 19.4066 13.8797C19.1957 13.8797 18.9848 14.0485 18.9848 14.3016V19.9547C18.9848 20.3766 18.6895 20.7141 18.3098 20.7141C18.0988 20.7141 17.9301 20.5875 17.8457 20.5032C17.7191 20.3344 17.6348 20.1657 17.6348 19.9547V15.736C18.0566 15.4829 18.352 15.0188 18.352 14.4704V8.98599C18.352 7.84692 17.7613 6.87661 16.8754 6.37036C17.0863 6.2438 17.3395 6.20161 17.5504 6.20161ZM11.4332 6.87661H15.6098C16.6645 6.87661 17.5082 7.80474 17.5082 8.98599V14.4704C17.5082 14.8079 17.2551 15.1032 16.9598 15.1032C16.6645 15.1032 16.4113 14.8079 16.4113 14.4704V10.8844C16.4113 10.6735 16.2426 10.4625 15.9895 10.4625C15.7785 10.4625 15.5676 10.6313 15.5676 10.8844V22.486C15.5676 22.9922 15.1879 23.4141 14.766 23.4141C14.3441 23.4141 13.9645 22.9922 13.9645 22.486V16.0735C13.9645 15.8625 13.7957 15.6516 13.5426 15.6516C13.3316 15.6516 13.1207 15.8204 13.1207 16.0735V22.4438C13.1207 22.9501 12.741 23.3719 12.3191 23.3719C11.8973 23.3719 11.5176 22.9501 11.5176 22.4438V10.8422C11.5176 10.6313 11.3488 10.4204 11.0957 10.4204C10.8848 10.4204 10.6738 10.5891 10.6738 10.8422V14.4282C10.6738 14.7657 10.4207 15.061 10.1254 15.061C9.83008 15.061 9.57695 14.7657 9.57695 14.4282V8.9438C9.53477 7.80474 10.4207 6.87661 11.4332 6.87661ZM4.97852 12.9094C4.97852 13.2047 4.76758 13.4157 4.51445 13.4157C4.38789 13.4157 4.30352 13.3735 4.21914 13.2891C4.13477 13.2047 4.09258 13.036 4.09258 12.9094V8.01567C4.09258 7.00317 4.80977 6.20161 5.73789 6.20161H9.4082C9.66133 6.20161 9.91445 6.28599 10.1254 6.37036C9.28164 6.87661 8.69102 7.84692 8.69102 8.9438V14.4282C8.69102 14.9344 8.94414 15.3985 9.32383 15.6516V19.9547C9.32383 20.3766 9.02852 20.7141 8.64883 20.7141C8.48008 20.7141 8.31133 20.6297 8.18477 20.5032C8.0582 20.3766 7.97383 20.1657 7.97383 19.9547V14.3016C7.97383 14.0907 7.80508 13.8797 7.55195 13.8797C7.34101 13.8797 7.13008 14.0485 7.13008 14.3016V19.9547C7.13008 20.3766 6.83477 20.7141 6.45508 20.7141C6.07539 20.7141 5.78008 20.3766 5.78008 19.9547V9.70317C5.78008 9.49224 5.61133 9.2813 5.3582 9.2813C5.14727 9.2813 4.93633 9.45005 4.93633 9.70317L4.97852 12.9094ZM13.5004 26.1141C6.62383 26.1141 1.9832 23.8782 1.9832 21.811C1.9832 20.7985 3.08008 19.7438 4.97852 18.9422V19.9547C4.97852 20.8407 5.65351 21.5579 6.49726 21.5579C6.91914 21.5579 7.29883 21.3469 7.59414 21.0516C7.88945 21.3469 8.26914 21.5157 8.69102 21.5157C9.53477 21.5157 10.2098 20.7985 10.2098 19.9125V15.8625C10.3785 15.8625 10.5473 15.8204 10.6738 15.736V22.3594C10.6738 23.3297 11.4332 24.1313 12.3191 24.1313C12.8254 24.1313 13.2473 23.8782 13.5426 23.5407C13.8379 23.9204 14.2598 24.1313 14.766 24.1313C15.652 24.1313 16.4113 23.3297 16.4113 22.4016V15.8204C16.5379 15.8625 16.6645 15.9047 16.8332 15.9469V19.9969C16.8332 20.4188 17.002 20.7985 17.2551 21.136C17.5504 21.4313 17.9301 21.6 18.352 21.6C18.7738 21.6 19.1535 21.3891 19.4488 21.0938C19.7441 21.3891 20.1238 21.6 20.5457 21.6C21.3895 21.6 22.0645 20.8829 22.0645 19.9969V18.9844C24.0051 19.786 25.102 20.7985 25.102 21.8532C25.0176 23.8782 20.377 26.1141 13.5004 26.1141Z" fill="black"/>
</g>
<defs>
<clipPath id="clip0_610_935">
<rect width="27" height="27" fill="white"/>
</clipPath>
</defs>
</svg>
